# xmcd
# 
# Track frame offsets:
#     150
#     10915
#     33745
#     49737
#     63452
#     78572
#     92985
#     106182
# 
# Disc length: 1793
# 
# Revision: 1
# Processed by: cddbd v1.5.2PL0 Copyright (c) Steve Scherf et al.
# Submitted via: fre:ac v1.0.31
# 
DISCID=6406ff08
DTITLE=Eddie Harris - Here Comes The Judge
DYEAR=1964
DGENRE=Jazz
TTITLE0=East End Blues
TTITLE1=Deep In A Dream
TTITLE2=Goldfinger
TTITLE3=People
TTITLE4=What`s New
TTITLE5=Rice Pudding
TTITLE6=Ineffable
TTITLE7=That`s Tough
EXTD=
EXTT0=
EXTT1=
EXTT2=
EXTT3=
EXTT4=
EXTT5=
EXTT6=
EXTT7=
PLAYORDER=
